<svg xmlns="http://www.w3.org/2000/svg" viewBox="0 0 256 256" width="50" height="50"><path d="M66.56 20.48c-25.388 0-46.08 20.692-46.08 46.08v122.88c0 25.388 20.692 46.08 46.08 46.08h122.88c25.388 0 46.08-20.692 46.08-46.08V66.56c0-25.388-20.692-46.08-46.08-46.08zm0 10.24h122.88c19.853 0 35.84 15.987 35.84 35.84v122.88c0 19.853-15.987 35.84-35.84 35.84H66.56c-19.853 0-35.84-15.987-35.84-35.84V66.56c0-19.853 15.987-35.84 35.84-35.84zm105.27 25.61a7.373 7.373 0 00-1.72.12h-.01l-64.47 12.09c-4.808.905-8.35 5.173-8.35 10.07v69.87c0 5.717-4.523 10.24-10.24 10.24h-9.37c-10.87 0-20.732 8.162-21.32 19.39-.61 11.708 8.838 21.57 20.45 21.57h2.56c15.491 0 28.16-12.669 28.16-28.16v-66.79l61.44-11.52v39.91c0 5.717-4.523 10.24-10.24 10.24h-9.37c-10.87 0-20.732 8.162-21.32 19.39-.61 11.708 8.838 21.57 20.45 21.57h2.56c15.491 0 28.16-12.669 28.16-28.16V64c0-4.11-3.42-7.472-7.37-7.67zm-2.87 10.76v15.7l-61.44 11.52v-15.7zm0 83.34v5.73c0 9.955-7.965 17.92-17.92 17.92h-2.56c-5.899 0-10.543-4.793-10.23-10.8.282-5.391 5.34-9.68 11.1-9.68h9.37c3.802 0 7.178-1.34 10.24-3.17zm-71.68 15.36v5.73c0 9.955-7.965 17.92-17.92 17.92H76.8c-5.899 0-10.543-4.793-10.23-10.8.282-5.391 5.34-9.68 11.1-9.68h9.37c3.802 0 7.178-1.34 10.24-3.17z" fill="#fff" font-family="none" font-weight="none" font-size="none" text-anchor="none"/></svg>