<svg viewBox="0 0 512 512" xmlns="http://www.w3.org/2000/svg"><path d="M256 122c-33.08 0-60 26.92-60 60s26.92 60 60 60 60-26.92 60-60-26.92-60-60-60zm0 0c-33.08 0-60 26.92-60 60s26.92 60 60 60 60-26.92 60-60-26.92-60-60-60zm0-122C156.75 0 76 80.75 76 180c0 98.43 106.03 247.21 168.7 319.04L256 512l11.3-12.96C328.41 429 436 279.26 436 180 436 80.75 355.25 0 256 0zm0 272c-49.63 0-90-40.37-90-90s40.37-90 90-90 90 40.37 90 90-40.37 90-90 90zm0-150c-33.08 0-60 26.92-60 60s26.92 60 60 60 60-26.92 60-60-26.92-60-60-60zm0 0c-33.08 0-60 26.92-60 60s26.92 60 60 60 60-26.92 60-60-26.92-60-60-60zm0 0c-33.08 0-60 26.92-60 60s26.92 60 60 60 60-26.92 60-60-26.92-60-60-60z" fill="red"/></svg>