<svg xmlns="http://www.w3.org/2000/svg" viewBox="0 0 256 256" width="50" height="50"><path d="M128 10.19C62.806 10.19 10.19 62.806 10.19 128S62.806 245.81 128 245.81 245.81 193.194 245.81 128 193.194 10.19 128 10.19zm0 10.34c59.652 0 107.47 47.818 107.47 107.47S187.652 235.47 128 235.47 20.53 187.652 20.53 128 68.348 20.53 128 20.53zm-15.7 51.15c-30.376 0-53.234 5.26-54.35 5.52h-.01v.01c-8.196 1.914-13.365 10.236-11.46 18.43 1.905 8.201 10.227 13.357 18.42 11.48h.04l.03-.01c-.582.142.255-.06.87-.19s1.523-.308 2.7-.53c2.355-.444 5.773-1.04 10.03-1.63 8.515-1.182 20.378-2.36 33.73-2.36h.32c22.082.03 53.813 3.419 79.28 18.37h.01v.01a15.432 15.432 0 007.76 2.1c5.269 0 10.418-2.751 13.26-7.59 4.262-7.26 1.792-16.753-5.47-21.02-31.965-18.767-69.174-22.553-94.8-22.59zm0 10.24h.36c24.601.036 60.149 3.883 89.61 21.18 2.496 1.467 3.292 4.52 1.83 7.01-.977 1.664-2.674 2.53-4.43 2.53a5.084 5.084 0 01-2.58-.7l-.02-.01c-28.043-16.455-61.37-19.739-84.44-19.77h-.33c-13.953 0-26.252 1.228-35.13 2.46a224.43 224.43 0 00-10.53 1.7c-1.25.236-2.228.437-2.91.58-.641.135-.595.115-1.11.24-2.845.652-5.516-1.003-6.17-3.82-.654-2.811 1.004-5.48 3.81-6.14.778-.18 22.85-5.26 52.04-5.26zm.3 30.73a226.911 226.911 0 00-32 2.54c-8.089 1.233-12.683 2.349-14.16 2.77-7.328 2.078-11.671 9.844-9.59 17.18 2.088 7.343 9.853 11.664 17.18 9.58l.03-.01h.02c.133-.031.34-.08.61-.14a180.921 180.921 0 0111.02-2.01c7.313-1.104 17.42-2.22 28.58-2.32 19.78-.174 42.217 2.732 64.11 16.37a13.87 13.87 0 007.36 2.12c4.637 0 9.198-2.352 11.82-6.55 4.035-6.471 2.025-15.14-4.45-19.17-27.57-17.176-57.14-20.554-80.53-20.36zm.09 10.23c22.331-.185 49.74 3.064 75.03 18.82 1.768 1.1 2.275 3.288 1.17 5.06a3.638 3.638 0 01-3.13 1.73c-.673 0-1.315-.17-1.92-.55l-.01-.01c-24.02-14.967-48.76-18.114-69.63-17.93-11.787.105-22.343 1.281-30.02 2.44a193.91 193.91 0 00-9.15 1.6c-1.098.22-1.966.403-2.58.54-.307.069-.548.127-.73.17-.181.043.105-.05-.54.14l.05-.02a3.637 3.637 0 01-4.53-2.53c-.57-2.01.524-3.963 2.53-4.53h.01c-.059.017 5.209-1.327 12.9-2.5a216.985 216.985 0 0130.55-2.43zm2.51 25.61c-22.318.005-38.839 5.43-39.89 5.78-6.65 2.213-10.306 9.542-8.09 16.19 2.217 6.65 9.546 10.341 16.21 8.08l-.08.03c.513-.165.817-.272 2.37-.69 1.553-.418 3.838-.978 6.69-1.54 5.704-1.125 13.701-2.248 22.79-2.25 22.205-.005 37.371 5.312 49.22 13.21v-.01a12.79 12.79 0 007.09 2.16c4.13 0 8.216-2.04 10.66-5.71 3.884-5.83 2.277-13.85-3.55-17.74-18.663-12.44-39.663-17.52-63.42-17.51zm0 10.24c22.323-.01 40.932 4.586 57.74 15.79 1.22.822 1.524 2.328.71 3.55a2.506 2.506 0 01-2.14 1.14c-.498 0-.958-.128-1.41-.43v-.01c-13.485-8.988-31.025-14.925-54.9-14.92-9.927.003-18.557 1.215-24.77 2.44a112.337 112.337 0 00-7.37 1.7c-1.754.472-3.281.972-2.84.83l-.04.01-.04.01c-1.364.463-2.744-.222-3.21-1.62-.466-1.398.227-2.777 1.62-3.24.3-.1 16.01-5.245 36.65-5.25z" fill="#fff" font-family="none" font-weight="none" font-size="none" text-anchor="none"/></svg>