<svg xmlns="http://www.w3.org/2000/svg" viewBox="0 0 256 256" width="50" height="50"><path d="M117.61 10.7c-.104.004-.207.01-.31.02C57.31 16.125 10.24 66.609 10.24 128c0 64.975 52.785 117.76 117.76 117.76 64.975 0 117.76-52.785 117.76-117.76a117.18 117.18 0 00-7.12-40.31 5.12 5.12 0 00-8.01-2.24l-25.86 20.74a5.12 5.12 0 00-1.79 5.11 76.781 76.781 0 011.82 16.7c0 42.496-34.304 76.8-76.8 76.8-42.496 0-76.8-34.304-76.8-76.8 0-39.223 29.318-71.466 67.19-76.17a5.12 5.12 0 004.49-5.08V15.82a5.12 5.12 0 00-5.27-5.12zm30.77 1.44a5.12 5.12 0 00-5.02 5.11v67.66c-4.844-1.744-9.919-2.99-15.36-2.99-25.388 0-46.08 20.692-46.08 46.08 0 25.388 20.692 46.08 46.08 46.08 25.388 0 46.08-20.692 46.08-46.08V67.11c6.328 4.795 12.175 10.196 16.76 16.69a5.12 5.12 0 008.51-.22l17.35-27.44a5.12 5.12 0 00-.49-6.13c-17.07-19.263-40.406-32.97-66.81-37.79a5.118 5.118 0 00-1.02-.08zm-35.74 9.82v20.69C71.964 49.934 40.96 85.26 40.96 128c0 48.025 39.015 87.04 87.04 87.04 48.025 0 87.04-39.015 87.04-87.04 0-5.311-.775-10.463-1.7-15.55l17.6-14.13c2.745 9.476 4.58 19.34 4.58 29.68 0 59.44-48.08 107.52-107.52 107.52S20.48 187.44 20.48 128c0-54.199 40.116-98.54 92.16-106.04zm40.96 1.98c20.278 4.966 38.287 15.58 52.22 30.24l-11.49 18.18c-6.517-7.747-13.99-14.65-22.8-19.75a5.12 5.12 0 00-7.69 4.43V128c0 19.853-15.987 35.84-35.84 35.84S92.16 147.853 92.16 128 108.147 92.16 128 92.16c6.541 0 12.615 1.775 17.91 4.84a5.12 5.12 0 007.69-4.44v-51.6z" fill="#fff" font-family="none" font-weight="none" font-size="none" text-anchor="none"/></svg>