<svg xmlns="http://www.w3.org/2000/svg" viewBox="0 0 512.001 512.001"><path d="M436.989 79.416H75.011C33.65 79.416 0 113.067 0 154.427v203.147c0 41.362 33.65 75.011 75.011 75.011h361.978c41.362 0 75.011-33.65 75.012-75.012V154.427c0-41.36-33.65-75.011-75.012-75.011zm56.325 278.157c0 31.057-25.267 56.324-56.325 56.324H75.011c-31.058 0-56.324-25.267-56.324-56.324V154.427c0-31.057 25.266-56.324 56.324-56.324h361.978c31.058 0 56.325 25.267 56.325 56.324v203.146z" fill="#fff"/><path d="M333.893 248.843l-126.225-72.876a9.345 9.345 0 00-14.016 8.091V329.81a9.342 9.342 0 0014.016 8.091l126.225-72.876a9.345 9.345 0 000-16.182zM212.34 313.627V200.242l98.194 56.693-98.194 56.692z" fill="#fff"/></svg>