<svg xmlns="http://www.w3.org/2000/svg" viewBox="0 0 512 512"><path d="M437.02 74.981C388.668 26.629 324.38 0 256 0S123.333 26.628 74.98 74.98C26.629 123.333 0 187.62 0 256s26.629 132.668 74.98 181.02C123.333 485.372 187.62 512 256 512s132.667-26.628 181.019-74.98C485.372 388.667 512 324.38 512 256s-26.628-132.667-74.98-181.019zM256 482C131.383 482 30 380.617 30 256S131.383 30 256 30s226 101.383 226 226-101.383 226-226 226z" fill="#fff"/><path d="M371.793 290.457c-7.592-3.319-16.434.147-19.751 7.739-16.803 38.456-54.771 63.304-96.728 63.304-58.173 0-105.5-47.327-105.5-105.5s47.327-105.5 105.5-105.5c41.715 0 79.595 24.649 96.502 62.796 3.357 7.574 12.217 10.995 19.791 7.636 7.574-3.356 10.993-12.217 7.636-19.791-21.711-48.988-70.356-80.641-123.928-80.641-74.715 0-135.5 60.785-135.5 135.5s60.785 135.5 135.5 135.5c53.881 0 102.64-31.909 124.218-81.292 3.317-7.591-.148-16.434-7.74-19.751z" fill="#fff"/></svg>