<svg version="1.0" xmlns="http://www.w3.org/2000/svg" width="1049.333" height="533.333" viewBox="0 0 787 400"><path d="M472 89.1c-7 2.8-12.3 11.5-12.3 20.3 0 5.2.3 6.2 2.7 8.3 2.7 2.3 6.4 2.8 10.1 1.4 1.9-.8 1.9-.8-.2-1.5-2.9-.9-3-2.6-.1-2.6 1.2 0 3.8 1.8 6.1 4.2 4.3 4.5 7.6 5.3 12.2 2.8 3.4-1.8 6.5-8.6 6.5-14.2 0-7.5-4.3-15.3-10-18.3-3.3-1.7-11.2-1.9-15-.4zm17.6 4.6c2.4 3.2 1.6 4.9-1.1 2.3-1.4-1.3-2.5-2.7-2.5-3.2 0-1.4 2.2-.9 3.6.9zM27.2 209c-10.9 6.7-6 27.3 7.5 31.8 4.3 1.4 12.4-.6 15.9-3.9 7.7-7.2 9.7-23.5 3.4-26.9-2.2-1.2-7.7-1.2-10.5 0-1.9.9-1.9.9.3 1.6 1.2.3 2.2 1 2.2 1.5 0 2-4.1.7-8.4-2.6-5.4-4.1-6-4.2-10.4-1.5zm4.8 3.4c0 .2-1.6 2-3.5 3.9-2.7 2.7-3.5 3.1-3.5 1.8 0-2.1 3.3-5.4 4.3-4.4.4.3.7.1.7-.5 0-.7.5-1.2 1-1.2.6 0 1 .2 1 .4zm259 102l-2.5 1.4 2.5 1c1.4.5 3.2 1.2 4 1.5.8.3.2.6-1.5.6-1.6 0-4.1-.6-5.5-1.4-1.4-.8-4.6-1.4-7.2-1.5-9.3 0-13.9 8.3-10.8 19.5 2.5 8.8 12.6 14.8 21 12.5 13.1-3.5 20.2-22.1 12.2-32-2.2-2.7-8.7-3.6-12.2-1.6zm12.8 6.8c.7.7 1.2 2.3 1.1 3.7-.1 2.5-.1 2.5-1.1-.4-.6-1.7-1.6-3.3-2.2-3.7-.7-.5-.7-.8 0-.8.5 0 1.5.5 2.2 1.2zm-70.5 15.5c-5.8 1.1-10.1 9.5-8.9 17.6 1.8 11.8 13.2 19.5 23.3 15.6 8.8-3.3 15-16.2 12-24.9-1.6-4.6-5.3-6.4-11-5.3l-4.2.9 3 1.7c2.7 1.4 2.8 1.6.8 1.7-1.2 0-4.3-1.8-6.8-4s-4.9-3.9-5.3-3.9c-.4.1-1.7.4-2.9.6zm24.3 11.8c.6 2.3-.2 6.3-1 5.4-.2-.2-.6-2.1-1-4.2-.8-4.2 1-5.3 2-1.2z"/></svg>