<svg xmlns="http://www.w3.org/2000/svg" viewBox="0 0 64 64"><g data-name="Layer 2" fill="#0ff"><path d="M32 3a28.973 28.973 0 00-19.183 7.25 1 1 0 001.325 1.5 26.975 26.975 0 11-2.825 2.893 1 1 0 10-1.531-1.286A29 29 0 1032 3z"/><path d="M48.783 47.758a1 1 0 001.41-.106A24 24 0 1032 56a23.746 23.746 0 0014.941-5.217 1 1 0 10-1.241-1.565A21.757 21.757 0 0132 54a22 22 0 1116.678-7.652 1 1 0 00.105 1.41z"/><path d="M39.645 29.854a1 1 0 001.374-.334A10.547 10.547 0 0025.3 15.905a10.514 10.514 0 00-3.84 8.139 3.121 3.121 0 106.242 0 4.312 4.312 0 015.2-4.215 4.238 4.238 0 013.322 3.321 4.34 4.34 0 01-1.641 4.342 13.7 13.7 0 00-5.7 10.969v.432a3.122 3.122 0 006.243 0v-.432a7.525 7.525 0 013.2-5.974 1 1 0 10-1.2-1.6 9.5 9.5 0 00-4 7.574v.432a1.122 1.122 0 01-2.243 0v-.432a11.727 11.727 0 014.9-9.369 6.327 6.327 0 002.405-6.324A6.307 6.307 0 0025.7 24.044a1.121 1.121 0 11-2.242 0 8.548 8.548 0 0116.925-1.7 8.624 8.624 0 01-1.07 6.139 1 1 0 00.332 1.371zM32 44.257a3.121 3.121 0 103.121 3.121A3.125 3.125 0 0032 44.257zm0 4.243a1.121 1.121 0 111.121-1.121A1.123 1.123 0 0132 48.5z"/></g></svg>