<!-- icon666.com - MILLIONS vector ICONS FREE --><svg id="OBJECT" viewBox="0 0 32 32" xmlns="http://www.w3.org/2000/svg"><circle cx="11.5" cy="20.5" r="2" fill="#000000" style="fill: rgb(139, 0, 0);"></circle><circle cx="20.5" cy="18.5" r="2" fill="#000000" style="fill: rgb(139, 0, 0);"></circle><path d="m16 1a15 15 0 1 0 15 15 15 15 0 0 0 -15-15zm7.5 17.5a3 3 0 1 1 -3-3 3 3 0 0 1 2 .78v-6.66l-8 1.78v9.1a3 3 0 1 1 -3-3 3 3 0 0 1 2 .78v-7.28a.5.5 0 0 1 .39-.49l9-2a.52.52 0 0 1 .42.1.49.49 0 0 1 .19.39z" fill="#000000" style="fill: rgb(139, 0, 0);"></path></svg>