<!-- icon666.com - MILLIONS vector ICONS FREE --><svg id="Capa_1" enable-background="new 0 0 512 512" viewBox="0 0 512 512" xmlns="http://www.w3.org/2000/svg"><g><g><path d="m256 122c-33.08 0-60 26.92-60 60s26.92 60 60 60 60-26.92 60-60-26.92-60-60-60zm0 0c-33.08 0-60 26.92-60 60s26.92 60 60 60 60-26.92 60-60-26.92-60-60-60zm0-122c-99.25 0-180 80.75-180 180 0 98.43 106.03 247.21 168.7 319.04l11.3 12.96 11.3-12.96c61.11-70.04 168.7-219.78 168.7-319.04 0-99.25-80.75-180-180-180zm0 272c-49.63 0-90-40.37-90-90s40.37-90 90-90 90 40.37 90 90-40.37 90-90 90zm0-150c-33.08 0-60 26.92-60 60s26.92 60 60 60 60-26.92 60-60-26.92-60-60-60zm0 0c-33.08 0-60 26.92-60 60s26.92 60 60 60 60-26.92 60-60-26.92-60-60-60zm0 0c-33.08 0-60 26.92-60 60s26.92 60 60 60 60-26.92 60-60-26.92-60-60-60z" fill="#000000" style="fill: rgb(255, 0, 0);"></path></g></g></svg>