<svg viewBox="0 -106 511.976 511" xmlns="http://www.w3.org/2000/svg"><path d="M479.969 299.156h-64a31.873 31.873 0 01-25.203-12.27l-62.399-79.597a10.662 10.662 0 00-11.86-3.516 10.66 10.66 0 00-7.206 10.047v32c0 29.47-28.668 53.336-64 53.336a72.18 72.18 0 01-39.067-11.066c-89.601-57.336-150.402-129.735-203.199-242A32.001 32.001 0 0131.97.488h64a32.004 32.004 0 0129.465 19.332l7.199 16.801a274.377 274.377 0 0043.336 69.602c.582.625 1.41.968 2.265.933a2.795 2.795 0 002.153-.722 2.79 2.79 0 00.914-2.079V62.621c-14.64-5.23-23.399-20.226-20.77-35.547C163.161 11.754 176.421.54 191.97.488h85.33c17.672 0 32 14.328 32 32v74.668a10.666 10.666 0 0019.734 5.598l59.598-96.934A31.74 31.74 0 01415.969.488h64A31.998 31.998 0 01506.5 50.355l-67.2 93.2a10.664 10.664 0 000 12.535l66.669 92.398a32.005 32.005 0 01-26 50.668zm-160-117.336a31.877 31.877 0 0125.199 12.27l62.398 79.597a10.668 10.668 0 008.403 4.133h64a10.668 10.668 0 008.664-16.934l-66.664-92.398a31.988 31.988 0 010-37.465l67.066-92.933a10.415 10.415 0 001.598-5.602c0-5.89-4.774-10.668-10.664-10.668h-64a10.66 10.66 0 00-9.067 5.067l-59.601 96.933c-7.461 12.258-22.172 18.051-35.989 14.168-13.816-3.879-23.355-16.484-23.343-30.832V32.488c0-5.89-4.778-10.668-10.668-10.668h-85.332c-5.895 0-10.668 4.778-10.668 10.668s4.773 10.668 10.668 10.668h10.664v61.2a24.405 24.405 0 01-15.98 22.613 24.405 24.405 0 01-26.821-6.88 295.693 295.693 0 01-46.664-74.933l-7.336-16.8a10.669 10.669 0 00-9.863-6.536h-64c-3.64.02-7.02 1.895-8.965 4.973a10.665 10.665 0 00-.637 10.23c51.602 109.73 108.266 177.332 195.465 233.2a51.613 51.613 0 0027.469 7.597c23.465 0 42.668-14.398 42.668-32v-32c0-17.672 14.324-32 32-32zm0 0" fill="#fff"/></svg>